<?xml version="1.0" standalone="no"?>
<!DOCTYPE svg PUBLIC "-//W3C//DTD SVG 20010904//EN"
 "http://www.w3.org/TR/2001/REC-SVG-20010904/DTD/svg10.dtd">
<svg version="1.0" xmlns="http://www.w3.org/2000/svg"
 width="715.000000pt" height="715.000000pt" viewBox="0 0 715.000000 715.000000"
 preserveAspectRatio="xMidYMid meet">
<metadata>
Created by potrace 1.11, written by Peter Selinger 2001-2013
</metadata>
<g transform="translate(0.000000,715.000000) scale(0.100000,-0.100000)"
fill="#000000" stroke="none">
<path d="M5259 6476 c-2 -2 -44 -7 -94 -11 -49 -3 -97 -8 -105 -10 -8 -2 -42
-6 -75 -10 -33 -3 -80 -8 -105 -11 -72 -9 -309 -53 -375 -70 -33 -9 -67 -18
-75 -19 -147 -34 -404 -131 -580 -220 -249 -125 -619 -376 -810 -549 -94 -85
-260 -257 -331 -342 -41 -49 -77 -91 -80 -94 -3 -3 -44 -57 -90 -120 -184
-250 -343 -524 -469 -810 -99 -224 -208 -545 -255 -750 -36 -157 -77 -373 -90
-475 -4 -32 -15 -126 -20 -175 -3 -25 -7 -67 -10 -95 -3 -27 -8 -129 -10 -225
-3 -96 -7 -187 -9 -203 -2 -15 0 -29 4 -32 4 -2 7 1 7 8 2 52 101 364 162 509
46 110 143 311 197 408 157 284 424 658 648 908 17 19 54 60 81 91 150 167
396 402 545 522 510 409 1125 761 1701 974 84 31 161 58 169 60 8 2 60 18 115
35 55 17 107 33 115 35 72 20 218 58 230 60 8 2 35 8 60 14 91 20 324 67 376
75 22 4 77 13 124 21 47 7 110 17 140 20 30 4 62 9 70 10 8 1 38 6 65 9 150
20 209 27 350 41 39 3 80 8 92 10 27 4 172 18 196 19 30 1 19 11 -50 43 -219
103 -547 208 -838 268 -107 23 -114 24 -155 30 -20 3 -45 7 -55 9 -18 3 -69
10 -245 32 -54 7 -515 16 -521 10z"/>
<path d="M3477 6414 c-1 -1 -40 -5 -87 -8 -86 -7 -105 -9 -220 -27 -215 -35
-523 -116 -675 -178 -125 -51 -187 -79 -280 -126 -112 -57 -119 -61 -260 -153
-89 -58 -210 -149 -256 -192 -165 -155 -239 -233 -337 -354 -221 -274 -382
-580 -475 -901 -32 -109 -51 -198 -72 -335 -4 -25 -9 -56 -11 -70 -22 -134
-22 -515 0 -670 3 -19 8 -57 12 -85 13 -104 23 -153 59 -319 100 -452 328
-946 643 -1393 12 -17 13 -17 7 1 -9 31 -43 275 -50 356 -3 41 -8 84 -10 95
-26 126 -26 912 0 1100 2 17 9 77 15 135 13 116 18 163 26 200 2 14 6 36 9 50
3 13 7 42 11 65 3 22 9 58 14 80 5 22 11 55 15 73 11 63 73 298 104 391 205
621 616 1224 1180 1731 46 41 89 80 95 86 66 64 375 297 554 418 23 16 42 30
42 32 0 4 -49 1 -53 -2z"/>
<path d="M553 4367 c-126 -131 -278 -373 -376 -602 -59 -138 -136 -412 -151
-545 -3 -25 -8 -56 -12 -70 -12 -51 -11 -446 2 -555 32 -275 101 -515 196
-685 17 -30 40 -70 50 -89 101 -178 299 -402 500 -563 101 -81 271 -198 288
-198 5 0 10 -3 10 -7 0 -5 10 -13 23 -19 12 -6 74 -38 137 -71 128 -66 233
-111 360 -155 75 -25 245 -73 296 -82 11 -2 39 -7 64 -12 25 -4 47 -8 50 -9
13 -3 152 -16 205 -20 49 -2 56 -1 41 8 -10 7 -66 46 -125 88 -314 227 -650
565 -888 894 -72 100 -193 281 -193 289 0 2 -23 43 -51 92 -106 184 -221 446
-289 659 -45 141 -102 378 -115 478 -2 15 -7 45 -10 67 -13 87 -16 108 -23
190 -9 111 -9 461 1 570 7 85 10 109 27 210 5 30 12 69 15 87 3 18 9 43 15 57
15 41 -4 38 -47 -7z"/>
</g>
</svg>
