<?xml version="1.0" encoding="UTF-8" ?>
<!DOCTYPE svg PUBLIC "-//W3C//DTD SVG 1.1//EN" "http://www.w3.org/Graphics/SVG/1.1/DTD/svg11.dtd">
<svg width="75pt" height="18pt" viewBox="0 0 75 18" version="1.1" xmlns="http://www.w3.org/2000/svg">
<g id="#ffffffff">
<path fill="#ffffff" opacity="1.00" d=" M 66.20 0.00 L 66.57 0.00 C 68.45 3.82 72.44 6.13 75.00 9.51 L 75.00 9.96 C 74.41 9.91 73.22 9.81 72.63 9.76 L 73.62 10.39 C 71.50 12.30 69.62 14.50 67.23 16.10 C 67.11 16.57 66.87 17.52 66.75 18.00 L 66.30 18.00 C 65.50 16.99 64.68 15.99 63.85 15.00 C 65.24 13.60 66.62 12.21 68.01 10.82 C 50.07 10.81 32.12 10.82 14.18 10.81 C 14.18 9.64 14.19 8.48 14.19 7.31 C 32.13 7.31 50.07 7.31 68.01 7.31 C 66.63 5.92 65.26 4.54 63.88 3.15 C 64.67 2.11 65.45 1.07 66.20 0.00 Z" />
<path fill="#ffffff" opacity="1.00" d=" M 0.49 7.33 C 1.65 7.32 2.82 7.30 3.99 7.29 C 3.99 8.47 4.00 9.64 4.00 10.82 C 3.13 10.82 1.38 10.82 0.51 10.82 C 0.50 9.95 0.49 8.20 0.49 7.33 Z" />
<path fill="#ffffff" opacity="1.00" d=" M 7.31 7.31 C 8.48 7.31 9.64 7.31 10.81 7.31 C 10.81 8.48 10.82 9.65 10.82 10.81 C 9.65 10.81 8.48 10.81 7.31 10.81 C 7.31 9.65 7.31 8.48 7.31 7.31 Z" />
</g>
</svg>
