<?xml version="1.0" encoding="UTF-8" ?>
<!DOCTYPE svg PUBLIC "-//W3C//DTD SVG 1.1//EN" "http://www.w3.org/Graphics/SVG/1.1/DTD/svg11.dtd">
<svg width="75pt" height="18pt" viewBox="0 0 75 18" version="1.1" xmlns="http://www.w3.org/2000/svg">
<g id="#888888ff">
<path fill="#888888" opacity="1.00" d=" M 0.73 9.06 C 3.56 6.20 6.41 3.37 9.25 0.54 C 10.07 1.36 10.89 2.18 11.71 3.00 C 10.28 4.43 8.85 5.87 7.42 7.31 C 25.39 7.33 43.35 7.28 61.32 7.33 C 61.31 8.20 61.31 9.94 61.31 10.81 C 43.35 10.82 25.39 10.80 7.43 10.82 C 8.86 12.26 10.28 13.69 11.71 15.13 C 10.89 15.95 10.07 16.77 9.25 17.59 C 6.40 14.76 3.56 11.92 0.73 9.06 Z" />
<path fill="#888888" opacity="1.00" d=" M 71.50 7.33 C 72.67 7.32 73.83 7.31 75.00 7.30 L 75.00 10.82 C 73.83 10.81 72.66 10.80 71.50 10.79 C 71.50 9.64 71.50 8.48 71.50 7.33 Z" />
<path fill="#888888" opacity="1.00" d=" M 64.69 7.32 C 65.55 7.32 67.26 7.32 68.12 7.32 C 68.12 8.19 68.12 9.94 68.12 10.81 C 67.26 10.81 65.55 10.81 64.69 10.81 C 64.69 9.94 64.69 8.19 64.69 7.32 Z" />
</g>
</svg>
