<?xml version="1.0" encoding="utf-8"?>
<svg xmlns="http://www.w3.org/2000/svg" xmlns:xlink="http://www.w3.org/1999/xlink">
    <symbol viewBox="0 0 482.6 482.6" id="001-telephone" xmlns="http://www.w3.org/2000/svg">
        <path d="M98.339 320.8c47.6 56.9 104.9 101.7 170.3 133.4 24.9 11.8 58.2 25.8 95.3 28.2 2.3.1 4.5.2 6.8.2 24.9 0 44.9-8.6 61.2-26.3.1-.1.3-.3.4-.5 5.8-7 12.4-13.3 19.3-20 4.7-4.5 9.5-9.2 14.1-14 21.3-22.2 21.3-50.4-.2-71.9l-60.1-60.1c-10.2-10.6-22.4-16.2-35.2-16.2-12.8 0-25.1 5.6-35.6 16.1l-35.8 35.8c-3.3-1.9-6.7-3.6-9.9-5.2-4-2-7.7-3.9-11-6-32.6-20.7-62.2-47.7-90.5-82.4-14.3-18.1-23.9-33.3-30.6-48.8 9.4-8.5 18.2-17.4 26.7-26.1 3-3.1 6.1-6.2 9.2-9.3 10.8-10.8 16.6-23.3 16.6-36s-5.7-25.2-16.6-36l-29.8-29.8c-3.5-3.5-6.8-6.9-10.2-10.4-6.6-6.8-13.5-13.8-20.3-20.1-10.3-10.1-22.4-15.4-35.2-15.4-12.7 0-24.9 5.3-35.6 15.5l-37.4 37.4c-13.6 13.6-21.3 30.1-22.9 49.2-1.9 23.9 2.5 49.3 13.9 80 17.5 47.5 43.9 91.6 83.1 138.7zm-72.6-216.6c1.2-13.3 6.3-24.4 15.9-34l37.2-37.2c5.8-5.6 12.2-8.5 18.4-8.5 6.1 0 12.3 2.9 18 8.7 6.7 6.2 13 12.7 19.8 19.6 3.4 3.5 6.9 7 10.4 10.6l29.8 29.8c6.2 6.2 9.4 12.5 9.4 18.7s-3.2 12.5-9.4 18.7c-3.1 3.1-6.2 6.3-9.3 9.4-9.3 9.4-18 18.3-27.6 26.8l-.5.5c-8.3 8.3-7 16.2-5 22.2.1.3.2.5.3.8 7.7 18.5 18.4 36.1 35.1 57.1 30 37 61.6 65.7 96.4 87.8 4.3 2.8 8.9 5 13.2 7.2 4 2 7.7 3.9 11 6 .4.2.7.4 1.1.6 3.3 1.7 6.5 2.5 9.7 2.5 8 0 13.2-5.1 14.9-6.8l37.4-37.4c5.8-5.8 12.1-8.9 18.3-8.9 7.6 0 13.8 4.7 17.7 8.9l60.3 60.2c12 12 11.9 25-.3 37.7-4.2 4.5-8.6 8.8-13.3 13.3-7 6.8-14.3 13.8-20.9 21.7-11.5 12.4-25.2 18.2-42.9 18.2-1.7 0-3.5-.1-5.2-.2-32.8-2.1-63.3-14.9-86.2-25.8-62.2-30.1-116.8-72.8-162.1-127-37.3-44.9-62.4-86.7-79-131.5-10.3-27.5-14.2-49.6-12.6-69.7z"/>
    </symbol>
    <symbol viewBox="0 0 310 310" id="001-twitter" xmlns="http://www.w3.org/2000/svg">
        <path d="M302.973 57.388a117.512 117.512 0 0 1-14.993 5.463 66.276 66.276 0 0 0 13.494-23.73 5 5 0 0 0-7.313-5.824 117.994 117.994 0 0 1-34.878 13.783c-12.381-12.098-29.197-18.983-46.581-18.983-36.695 0-66.549 29.853-66.549 66.547 0 2.89.183 5.764.545 8.598C101.163 99.244 58.83 76.863 29.76 41.204a5.001 5.001 0 0 0-8.196.642c-5.896 10.117-9.013 21.688-9.013 33.461 0 16.035 5.725 31.249 15.838 43.137a56.37 56.37 0 0 1-8.907-3.977 5 5 0 0 0-7.427 4.257c-.007.295-.007.59-.007.889 0 23.935 12.882 45.484 32.577 57.229a57.372 57.372 0 0 1-5.063-.735 4.998 4.998 0 0 0-5.699 6.437c7.29 22.76 26.059 39.501 48.749 44.605-18.819 11.787-40.34 17.961-62.932 17.961a120.4 120.4 0 0 1-14.095-.826 5 5 0 0 0-3.286 9.174c29.023 18.609 62.582 28.445 97.047 28.445 67.754 0 110.139-31.95 133.764-58.753 29.46-33.421 46.356-77.658 46.356-121.367 0-1.826-.028-3.67-.084-5.508 11.623-8.757 21.63-19.355 29.773-31.536a5 5 0 0 0-6.182-7.351z"/>
    </symbol>
    <symbol viewBox="0 0 330.001 330.001" id="002-internet" xmlns="http://www.w3.org/2000/svg">
        <path d="M165.001 0C74.02 0 .001 74.018.001 164.997c0 90.983 74.019 165.004 165 165.004 8.284 0 15-6.716 15-15 0-8.284-6.716-15-15-15-74.44 0-135-60.563-135-135.004C30 90.56 90.561 30 165.001 30s135 60.56 135 134.997v37.507c0 12.407-10.096 22.5-22.504 22.5-12.406 0-22.499-10.093-22.499-22.5v-37.507c0-49.626-40.372-90-89.997-90-49.626 0-89.999 40.374-89.999 90 0 49.63 40.373 90.007 89.999 90.007 25.927 0 49.323-11.026 65.762-28.63 8.706 16.978 26.379 28.63 46.734 28.63 28.951 0 52.504-23.551 52.504-52.5v-37.507C330 74.018 255.982 0 165.001 0zm0 225.004c-33.084 0-59.999-26.919-59.999-60.007 0-33.084 26.915-60 59.999-60 33.083 0 59.997 26.916 59.997 60 0 33.088-26.915 60.007-59.997 60.007z"/>
    </symbol>
    <symbol viewBox="0 0 52.966 52.966" id="002-search" xmlns="http://www.w3.org/2000/svg">
        <path d="M51.704 51.273L36.845 35.82c3.79-3.801 6.138-9.041 6.138-14.82 0-11.58-9.42-21-21-21s-21 9.42-21 21 9.42 21 21 21c5.083 0 9.748-1.817 13.384-4.832l14.895 15.491a.998.998 0 0 0 1.414.028 1 1 0 0 0 .028-1.414zM21.983 40c-10.477 0-19-8.523-19-19s8.523-19 19-19 19 8.523 19 19-8.524 19-19 19z"/>
    </symbol>
    <symbol viewBox="0 0 513.323 513.323" id="003-social" xmlns="http://www.w3.org/2000/svg">
        <path d="M256.661 257.323c-135.275 0-245.333 110.059-245.333 245.333 0 5.888 4.779 10.667 10.667 10.667s10.667-4.779 10.667-10.667c0-123.52 100.48-224 224-224s224 100.48 224 224c0 5.888 4.779 10.667 10.667 10.667s10.667-4.779 10.667-10.667c-.001-135.296-110.06-245.333-245.335-245.333zm0-257.323c-64.683 0-117.333 52.629-117.333 117.333s52.651 117.333 117.333 117.333 117.333-52.629 117.333-117.333S321.344 0 256.661 0zm0 213.333c-52.928 0-96-43.072-96-96s43.072-96 96-96 96 43.072 96 96-43.072 96-96 96z"/>
    </symbol>
    <symbol viewBox="0 0 304.36 304.36" id="003-vk" xmlns="http://www.w3.org/2000/svg">
        <path d="M261.945 175.576c10.096 9.857 20.752 19.131 29.807 29.982 4 4.822 7.787 9.798 10.684 15.394 4.105 7.955.387 16.709-6.746 17.184l-44.34-.02c-11.436.949-20.559-3.655-28.23-11.474-6.139-6.253-11.824-12.908-17.727-19.372-2.42-2.642-4.953-5.128-7.979-7.093-6.053-3.929-11.307-2.726-14.766 3.587-3.523 6.421-4.322 13.531-4.668 20.687-.475 10.441-3.631 13.186-14.119 13.664-22.414 1.057-43.686-2.334-63.447-13.641-17.422-9.968-30.932-24.04-42.691-39.971-22.895-31.021-40.428-65.108-56.186-100.15C-2.01 76.458.584 72.22 9.295 72.07c14.465-.281 28.928-.261 43.41-.02 5.879.086 9.771 3.458 12.041 9.012 7.826 19.243 17.402 37.551 29.422 54.521 3.201 4.518 6.465 9.036 11.113 12.216 5.142 3.521 9.057 2.354 11.476-3.374 1.535-3.632 2.207-7.544 2.553-11.434 1.146-13.383 1.297-26.743-.713-40.079-1.234-8.323-5.922-13.711-14.227-15.286-4.238-.803-3.607-2.38-1.555-4.799 3.564-4.172 6.916-6.769 13.598-6.769h50.111c7.889 1.557 9.641 5.101 10.721 13.039l.043 55.663c-.086 3.073 1.535 12.192 7.07 14.226 4.43 1.448 7.35-2.096 10.008-4.905 11.998-12.734 20.561-27.783 28.211-43.366 3.395-6.852 6.314-13.968 9.143-21.078 2.096-5.276 5.385-7.872 11.328-7.757l48.229.043c1.43 0 2.877.021 4.262.258 8.127 1.385 10.354 4.881 7.844 12.817-3.955 12.451-11.65 22.827-19.174 33.251-8.043 11.129-16.645 21.877-24.621 33.072-7.328 10.223-6.746 15.376 2.357 24.255zm0 0"
              fill-rule="evenodd" clip-rule="evenodd"/>
    </symbol>
    <symbol viewBox="0 0 502.468 502.468" id="004-arrows" xmlns="http://www.w3.org/2000/svg">
        <path d="M470.463 390.468v57.376L113.119 90.484l-22.64 22.624 357.36 357.36h-57.376v32h112v-112zM22.632 45.255L.005 22.628 22.632.001l22.627 22.627zM45.284 67.86L67.91 45.231l22.627 22.627L67.91 90.485z"/>
    </symbol>
    <symbol viewBox="0 0 34.166 34.166" id="005-signs" xmlns="http://www.w3.org/2000/svg">
        <path d="M17.083 19.109c-3.131 0-5.679-2.548-5.679-5.68s2.547-5.68 5.679-5.68 5.679 2.548 5.679 5.68-2.548 5.68-5.679 5.68zm0-10.359c-2.58 0-4.679 2.099-4.679 4.68s2.099 4.68 4.679 4.68 4.679-2.099 4.679-4.68-2.099-4.68-4.679-4.68z"/>
        <path d="M17.067 34.166a.5.5 0 0 1-.442-.266l-4.175-7.877a13.44 13.44 0 0 1-8.794-12.594C3.656 6.024 9.679 0 17.083 0S30.51 6.024 30.51 13.43c0 5.638-3.542 10.68-8.833 12.608L17.509 33.9a.5.5 0 0 1-.442.266zM17.083 1C10.231 1 4.656 6.576 4.656 13.43c0 5.261 3.34 9.97 8.311 11.717a.5.5 0 0 1 .276.237l3.824 7.215 3.817-7.201a.502.502 0 0 1 .278-.238 12.434 12.434 0 0 0 8.348-11.73C29.51 6.576 23.935 1 17.083 1z"/>
    </symbol>
    <symbol viewBox="0 0 477.175 477.175" id="back" xmlns="http://www.w3.org/2000/svg">
        <path d="M145.188 238.575l215.5-215.5c5.3-5.3 5.3-13.8 0-19.1s-13.8-5.3-19.1 0l-225.1 225.1c-5.3 5.3-5.3 13.8 0 19.1l225.1 225c2.6 2.6 6.1 4 9.5 4s6.9-1.3 9.5-4c5.3-5.3 5.3-13.8 0-19.1l-215.4-215.5z"/>
    </symbol>
    <symbol viewBox="0 0 512 512" id="close_(1)" xmlns="http://www.w3.org/2000/svg">
        <path d="M505.943 6.058c-8.077-8.077-21.172-8.077-29.249 0L6.058 476.693c-8.077 8.077-8.077 21.172 0 29.249A20.612 20.612 0 0 0 20.683 512a20.614 20.614 0 0 0 14.625-6.059L505.943 35.306c8.076-8.076 8.076-21.171 0-29.248z"/>
        <path d="M505.942 476.694L35.306 6.059c-8.076-8.077-21.172-8.077-29.248 0-8.077 8.076-8.077 21.171 0 29.248l470.636 470.636a20.616 20.616 0 0 0 14.625 6.058 20.615 20.615 0 0 0 14.624-6.057c8.075-8.078 8.075-21.173-.001-29.25z"/>
    </symbol>
    <symbol viewBox="0 0 75 18" id="next" xmlns="http://www.w3.org/2000/svg">
        <path d="M66.2 0h.37c1.88 3.82 5.87 6.13 8.43 9.51v.45l-2.37-.2.99.63c-2.12 1.91-4 4.11-6.39 5.71-.12.47-.36 1.42-.48 1.9h-.45c-.8-1.01-1.62-2.01-2.45-3 1.39-1.4 2.77-2.79 4.16-4.18-17.94-.01-35.89 0-53.83-.01 0-1.17.01-2.33.01-3.5h53.82l-4.13-4.16c.79-1.04 1.57-2.08 2.32-3.15zM.49 7.33c1.16-.01 2.33-.03 3.5-.04 0 1.18.01 2.35.01 3.53H.51C.5 9.95.49 8.2.49 7.33zm6.82-.02h3.5c0 1.17.01 2.34.01 3.5H7.31v-3.5z"/>
    </symbol>
    <symbol viewBox="0 0 75 18" id="prev" xmlns="http://www.w3.org/2000/svg">
        <path d="M.73 9.06C3.56 6.2 6.41 3.37 9.25.54L11.71 3c-1.43 1.43-2.86 2.87-4.29 4.31 17.97.02 35.93-.03 53.9.02-.01.87-.01 2.61-.01 3.48-17.96.01-35.92-.01-53.88.01l4.28 4.31-2.46 2.46C6.4 14.76 3.56 11.92.73 9.06zM71.5 7.33L75 7.3v3.52l-3.5-.03V7.33zm-6.81-.01h3.43v3.49h-3.43V7.32z"/>
    </symbol>
    <symbol viewBox="0 0 0 0" id="sprite" xmlns="http://www.w3.org/2000/svg"/>
</svg>